<?xml version="1.0" encoding="utf-8"?>
<!-- Generator: Adobe Illustrator 27.9.1, SVG Export Plug-In . SVG Version: 6.00 Build 0)  -->
<svg version="1.1" id="Laag_1" xmlns="http://www.w3.org/2000/svg" xmlns:xlink="http://www.w3.org/1999/xlink" x="0px" y="0px"
	 viewBox="0 0 272.22 274.47" style="enable-background:new 0 0 272.22 274.47;" xml:space="preserve">
<g>
	<g>
		<path d="M42.96,24.92c0.71,1.66,2.26,1.5,3.54,1.7c14.28,2.26,26.46,8.99,37.3,18.14c11.69,9.87,20.98,21.76,27.26,35.79
			c7.26,16.2,9.08,32.63,1.43,49.29c-1.41,3.08-3.36,5.83-5.28,8.62c-3.48,5.07-3.06,9.38,1.17,13.82
			c5.15,5.41,10.3,10.83,15.7,16.52c-2.66,4.89-6.86,8.14-10.68,11.71c-3.06-1.01-4.64-3.36-6.52-5.28
			c-5.33-5.45-10.53-11.02-15.91-16.41c-3.79-3.8-8.17-6.74-13.83-6.57c-17.57,0.52-31.88-6.86-43.74-18.99
			C16.38,115.83,4.9,95.1,2.09,70.7c-2.27-19.7,4.02-36.89,18.07-51.58c19.9-20.81,59.49-25.13,87.43-2.63
			c11.55,9.31,19.83,21,26.63,33.95c0.61,1.16,0.93,2.65,2.66,3.17c2.04-1.72,2.71-4.35,3.93-6.6c6.1-11.3,13.33-21.65,23.34-29.95
			c20.64-17.11,51.66-20.81,74.28-8.64c33.18,17.86,43.49,57.1,22.98,88.9c-9.15,14.18-19.71,27.39-30.68,40.2
			c-7.89,9.21-18.14,14.52-30.5,14.63c-8.29,0.07-14.66,3.18-20.36,9.29c-16.53,17.72-33.3,35.23-50.3,52.49
			c-15.08,15.31-29.73,31.02-44.66,46.47c-3.64,3.77-6.81,8.01-10.86,11.37c-3.45,2.86-7.75,3.2-11.17,1.1
			c-3.39-2.08-4.92-5.75-4.05-9.69c0.54-2.44,2.15-4.19,3.81-5.9c16.88-17.39,33.77-34.78,50.65-52.17
			c16.45-16.94,32.9-33.88,49.33-50.85c5.89-6.08,6.08-8.95,0.66-15.46c-6.14-7.39-10.47-15.45-10.95-25.3
			c-0.41-8.32,1.69-15.85,6.42-22.64c10.5-15.08,21.94-29.46,32.9-44.2c1.42-1.9,2.8-3.84,4.29-5.68c1.87-2.3,4.16-3.95,7.26-4.15
			c3.42-0.22,6.66,0.31,8.53,3.49c1.96,3.32,1.57,6.77-0.7,9.86c-5.77,7.85-11.61,15.65-17.44,23.47
			c-6.94,9.31-13.91,18.61-20.84,27.94c-1.5,2.01-2.81,4.15-3.45,6.61c-0.98,3.74,0.55,8.14,3.31,9.62c2.89,1.55,6.72,0.8,9.38-2.5
			c5.48-6.81,10.69-13.84,16-20.79c8.88-11.62,17.74-23.24,26.62-34.85c0.45-0.59,0.97-1.15,1.51-1.66
			c3.81-3.56,8.06-4.04,11.49-1.33c3.76,2.97,4.48,7.1,1.58,11.69c-2.66,4.22-5.64,8.26-8.64,12.25
			c-10.31,13.67-20.7,27.27-31.03,40.93c-3.6,4.76-4,8.76-1.26,11.47c2.81,2.78,7.55,2.49,12.01-0.81
			c5.32-3.93,8.8-9.53,12.84-14.58c7.65-9.56,15.1-19.28,22.48-29.05c10-13.23,12.73-27.76,5.59-42.99
			c-7.34-15.66-19.73-25.19-37.35-27.03c-20.6-2.15-35.91,7.06-48.16,22.65c-5.28,6.71-9.36,14.15-13.17,21.77
			c-2.12,4.24-4.41,8.41-8.98,10.72c-5.97,3.02-11.24,2.33-16.17-2.26c-3.29-3.06-5.15-7.03-7.05-10.97
			c-6.02-12.45-14.01-23.39-25.2-31.66c-14.74-10.9-30.78-13.7-48.1-6.85C45.45,22.57,43.64,23.03,42.96,24.92z M20.68,71.48
			c0.17,3.02,0.39,6,1.07,8.95c3.55,15.49,11.93,28.23,22.97,39.26c6.6,6.6,14.36,11.64,23.64,13.88c4.92,1.19,9.68,1.1,14.12-1.65
			c2.52-1.56,3.91-3.86,3.76-6.88c-0.15-3.05-1.79-5.2-4.54-6.34c-2.42-1-4.93-1.79-7.45-2.5c-5.14-1.45-9.69-3.97-13.77-7.38
			C48.46,98.76,41.06,85.86,37.1,70.84c-0.7-2.65-1.07-5.43-2.64-7.77c-1.73-2.56-4.06-4.1-7.29-3.53
			c-3.15,0.56-5.17,2.53-5.83,5.62C20.88,67.22,20.88,69.37,20.68,71.48z"
			fill="#955961"/>
		<path d="M149.82,216.68c2.58-4.07,6.48-7.26,9.87-10.42c2.44,0.09,3.41,1.52,4.52,2.64c15.4,15.65,30.78,31.31,46.15,46.99
			c1.39,1.42,2.79,2.88,3.92,4.51c2.2,3.17,1.89,7.91-0.49,10.87c-2.28,2.84-6.46,3.76-10.25,2.25c-2.63-1.05-4.58-2.98-6.46-4.99
			c-14.95-15.9-29.9-31.8-44.84-47.7C151.22,219.75,150.01,218.77,149.82,216.68z"
			fill="#955961"/>
	</g>
</g>
</svg>
